P3
60 60
255
0 0 0
0 0 0
0 0 0
0 0 0
0 0 0
0 0 0
0 0 0
0 0 0
0 0 0
0 0 0
0 0 0
0 0 0
0 0 0
0 0 0
0 0 0
0 0 0
0 0 0
0 0 0
0 0 0
0 0 0
0 0 0
0 0 0
0 0 0
0 0 0
0 0 0
0 0 0
0 0 0
0 0 0
0 0 0
0 0 0
0 0 0
0 0 0
0 0 0
0 0 0
0 0 0
0 0 0
0 0 0
0 0 0
0 0 0
0 0 0
0 0 0
0 0 0
0 0 0
0 0 0
0 0 0
0 0 0
0 0 0
0 0 0
0 0 0
0 0 0
0 0 0
0 0 0
0 0 0
0 0 0
0 0 0
0 0 0
0 0 0
0 0 0
0 0 0
0 0 0
0 0 0
0 0 0
0 0 0
0 0 0
0 0 0
0 0 0
0 0 0
0 0 0
0 0 0
0 0 0
0 0 0
0 0 0
0 0 0
0 129 115
0 127 114
0 127 114
0 127 114
0 127 114
0 127 113
0 113 101
0 96 85
0 89 80
0 87 78
0 87 77
0 86 77
0 86 77
0 86 77
0 86 77
0 86 77
0 86 77
0 86 77
0 86 77
0 86 77
0 86 77
0 86 77
0 86 77
0 86 77
0 86 77
0 86 77
0 86 77
0 86 77
0 86 77
0 86 77
0 86 77
0 86 77
0 86 77
0 86 77
0 86 77
0 86 77
0 86 77
0 86 76
0 83 74
0 83 74
0 0 0
0 0 0
0 0 0
0 0 0
0 0 0
0 0 0
0 0 0
0 0 0
0 0 0
0 0 0
0 0 0
0 0 0
0 0 0
0 0 0
0 0 0
0 0 0
0 0 0
0 0 0
0 0 0
0 131 117
0 128 114
0 127 114
0 127 114
0 127 114
0 127 114
0 127 113
0 113 101
0 96 85
0 89 80
0 87 78
0 87 77
0 86 77
0 86 77
0 86 77
0 86 77
0 86 77
0 86 77
0 86 77
0 86 77
0 86 77
0 86 77
0 86 77
0 86 77
0 86 77
0 86 77
0 86 77
0 86 77
0 86 77
0 86 77
0 86 77
0 86 77
0 86 77
0 86 77
0 86 77
0 86 77
0 86 77
0 86 77
0 86 76
0 83 74
0 83 74
0 0 0
0 0 0
0 0 0
0 0 0
0 0 0
0 0 0
0 0 0
0 0 0
0 0 0
0 0 0
0 0 0
0 0 0
0 0 0
0 0 0
0 0 0
0 0 0
0 0 0
0 0 0
0 0 0
0 128 114
0 127 114
0 127 114
0 127 114
0 127 114
0 127 114
0 127 113
0 113 101
0 96 85
0 89 80
0 87 78
0 87 77
0 86 77
0 86 77
0 86 77
0 86 77
0 86 77
0 86 77
0 86 77
0 86 77
0 86 77
0 86 77
0 86 77
0 86 77
0 86 77
0 86 77
0 86 77
0 86 77
0 86 77
0 86 77
0 86 77
0 86 77
0 86 77
0 86 77
0 86 77
0 86 77
0 86 77
0 86 77
0 86 76
0 83 74
0 83 74
0 0 0
0 0 0
0 0 0
0 0 0
0 0 0
0 0 0
0 0 0
0 0 0
0 0 0
0 0 0
0 0 0
0 0 0
0 0 0
0 0 0
0 0 0
0 0 0
0 0 0
0 0 0
0 0 0
0 127 114
0 127 114
0 127 114
0 127 114
0 127 114
0 127 114
0 127 113
0 113 101
0 96 85
0 89 80
0 87 78
0 86 77
0 86 77
0 86 77
0 86 77
0 86 77
0 86 77
0 86 77
0 86 77
0 86 77
0 86 77
0 86 77
0 86 77
0 86 77
0 86 77
0 86 77
0 86 77
0 86 77
0 86 77
0 86 77
0 86 77
0 86 77
0 86 77
0 86 77
0 86 77
0 86 77
0 86 77
0 86 77
0 86 76
0 83 74
0 83 74
0 0 0
0 0 0
0 0 0
0 0 0
0 0 0
0 0 0
0 0 0
0 0 0
0 0 0
0 0 0
0 0 0
0 0 0
0 0 0
0 0 0
0 0 0
0 0 0
0 0 0
0 0 0
0 0 0
0 127 114
0 127 114
0 127 114
0 127 114
0 127 114
0 127 114
0 127 113
0 113 100
0 96 85
0 89 80
0 87 78
0 86 77
0 86 77
0 86 77
0 86 77
0 86 77
0 86 77
0 86 77
0 86 77
0 86 77
0 86 77
0 86 77
0 86 77
0 86 77
0 86 77
0 86 77
0 86 77
0 86 77
0 86 77
0 86 77
0 86 77
0 86 77
0 86 77
0 86 77
0 86 77
0 86 77
0 86 77
0 86 77
0 86 76
0 83 74
0 83 74
0 0 0
0 0 0
0 0 0
0 0 0
0 0 0
0 0 0
0 0 0
0 0 0
0 0 0
0 0 0
0 0 0
0 0 0
0 0 0
0 0 0
0 0 0
0 0 0
0 0 0
0 0 0
0 0 0
0 127 114
0 127 114
0 127 114
0 127 114
0 127 114
0 127 113
0 127 113
0 113 100
0 96 85
0 89 80
0 87 78
0 86 77
0 86 77
0 86 77
0 86 77
0 86 77
0 86 77
0 86 77
0 86 77
0 86 77
0 86 77
0 86 77
0 86 77
0 86 77
0 86 77
0 86 77
0 86 77
0 86 77
0 86 77
0 86 77
0 86 77
0 86 77
0 86 77
0 86 77
0 86 77
0 86 77
0 86 77
0 86 77
0 86 76
0 83 74
0 83 74
0 0 0
0 0 0
0 0 0
0 0 0
0 0 0
0 0 0
0 0 0
0 0 0
0 0 0
0 0 0
0 0 0
0 0 0
0 0 0
0 0 0
0 0 0
0 0 0
0 0 0
0 0 0
0 0 0
0 127 114
0 127 114
0 127 114
0 127 114
0 127 113
0 127 113
0 127 113
0 113 100
0 96 85
0 89 80
0 87 78
0 86 77
0 86 77
0 86 77
0 86 77
0 86 77
0 86 77
0 86 77
0 86 77
0 86 77
0 86 77
0 86 77
0 86 77
0 86 77
0 86 77
0 86 77
0 86 77
0 86 77
0 86 77
0 86 77
0 86 77
0 86 77
0 86 77
0 86 77
0 86 77
0 86 77
0 86 77
0 86 77
0 86 76
0 83 74
0 83 74
0 0 0
0 0 0
0 0 0
0 0 0
0 0 0
0 0 0
0 0 0
0 0 0
0 0 0
0 0 0
0 0 0
0 0 0
0 0 0
0 0 0
0 0 0
0 0 0
0 0 0
0 0 0
0 0 0
0 127 114
0 127 114
0 127 114
0 127 113
0 127 113
0 127 113
0 127 113
0 113 100
0 96 85
0 89 80
0 87 78
0 86 77
0 86 77
0 86 77
0 86 77
0 86 77
0 86 77
0 86 77
0 86 77
0 86 77
0 86 77
0 86 77
0 86 77
0 86 77
0 86 77
0 86 77
0 86 77
0 86 77
0 86 77
0 86 77
0 86 77
0 86 77
0 86 77
0 86 77
0 86 77
0 86 77
0 86 77
0 86 77
0 86 76
0 83 74
0 83 74
0 0 0
0 0 0
0 0 0
0 0 0
0 0 0
0 0 0
0 0 0
0 0 0
0 0 0
0 0 0
0 0 0
0 0 0
0 0 0
0 0 0
0 0 0
0 0 0
0 0 0
0 0 0
0 0 0
0 127 114
0 127 114
0 127 113
0 127 113
0 127 113
0 127 113
0 127 113
0 113 100
0 95 85
0 89 80
0 87 78
0 86 77
0 86 77
0 86 77
0 86 77
0 86 77
0 86 77
0 86 77
0 86 77
0 86 77
0 86 77
0 86 77
0 86 77
0 86 77
0 86 77
0 86 77
0 86 77
0 86 77
0 86 77
0 86 77
0 86 77
0 86 77
0 86 77
0 86 77
0 86 77
0 86 77
0 86 77
0 86 77
0 86 76
0 83 74
0 83 74
0 0 0
0 0 0
0 0 0
0 0 0
0 0 0
0 0 0
0 0 0
0 0 0
0 0 0
0 0 0
0 0 0
0 0 0
0 0 0
0 0 0
0 0 0
0 0 0
0 0 0
0 0 0
0 0 0
0 127 113
0 127 113
0 127 113
0 127 113
0 127 113
0 127 113
0 127 113
0 112 100
0 95 85
0 89 80
0 87 78
0 86 77
0 86 77
0 86 77
0 86 77
0 86 77
0 86 77
0 86 77
0 86 77
0 86 77
0 86 77
0 86 77
0 86 77
0 86 77
0 86 77
0 86 77
0 86 77
0 86 77
0 86 77
0 86 77
0 86 77
0 86 77
0 86 77
0 86 77
0 86 77
0 86 77
0 86 77
0 86 77
0 86 76
0 83 74
0 83 74
0 0 0
0 0 0
0 0 0
0 0 0
0 0 0
0 0 0
0 0 0
0 0 0
0 0 0
0 0 0
0 0 0
0 0 0
0 0 0
0 0 0
0 0 0
0 0 0
0 0 0
0 0 0
0 0 0
0 127 113
0 127 113
0 127 113
0 127 113
0 127 113
0 127 113
0 127 113
0 112 100
0 95 85
0 89 80
0 87 78
0 86 77
0 86 77
0 86 77
0 86 77
0 86 77
0 86 77
0 86 77
0 86 77
0 86 77
0 86 77
0 86 77
0 86 77
0 86 77
0 86 77
0 86 77
0 86 77
0 86 77
0 86 77
0 86 77
0 86 77
0 86 77
0 86 77
0 86 77
0 86 77
0 86 77
0 86 77
0 86 77
0 86 76
0 83 74
0 83 74
0 0 0
0 0 0
0 0 0
0 0 0
0 0 0
0 0 0
0 0 0
0 0 0
0 0 0
0 0 0
0 0 0
0 0 0
0 0 0
0 0 0
0 0 0
0 0 0
0 0 0
0 0 0
0 0 0
0 127 113
0 127 113
0 127 113
0 127 113
0 127 113
0 127 113
0 127 113
0 112 100
0 95 85
0 89 80
0 87 78
0 86 77
0 86 77
0 86 77
0 86 77
0 86 77
0 86 77
0 86 77
0 86 77
0 86 77
0 86 77
0 86 77
0 86 77
0 86 77
0 86 77
0 86 77
0 86 77
0 86 77
0 86 77
0 86 77
0 86 77
0 86 77
0 86 77
0 86 77
0 86 77
0 86 77
0 86 77
0 86 77
0 86 76
0 83 74
0 83 74
0 0 0
0 0 0
0 0 0
0 0 0
0 0 0
0 0 0
0 0 0
0 0 0
0 0 0
0 0 0
0 0 0
0 0 0
0 0 0
0 0 0
0 0 0
0 0 0
0 0 0
0 0 0
0 0 0
0 127 113
0 127 113
0 127 113
0 127 113
0 127 113
0 127 113
0 127 113
0 112 100
0 95 85
0 89 80
0 87 78
0 86 77
0 86 77
0 86 77
0 86 77
0 86 77
0 86 77
0 86 77
0 86 77
0 86 77
0 86 77
0 86 77
0 86 77
0 86 77
0 86 77
0 86 77
0 86 77
0 86 77
0 86 77
0 86 77
0 86 77
0 86 77
0 86 77
0 86 77
0 86 77
0 86 77
0 86 77
0 86 77
0 86 76
0 83 74
0 83 74
0 0 0
0 0 0
0 0 0
0 0 0
0 0 0
0 0 0
0 0 0
0 0 0
0 0 0
0 0 0
0 0 0
0 0 0
0 0 0
0 0 0
0 0 0
0 0 0
0 0 0
0 0 0
0 0 0
0 127 113
0 127 113
0 127 113
0 127 113
0 127 113
0 127 113
0 127 113
0 112 100
0 95 85
0 89 80
0 87 78
0 86 77
0 86 77
0 86 77
0 86 77
0 86 77
0 86 77
0 86 77
0 86 77
0 86 77
0 86 77
0 86 77
0 86 77
0 86 77
0 86 77
0 86 77
0 86 77
0 86 77
0 86 77
0 86 77
0 86 77
0 86 77
0 86 77
0 86 77
0 86 77
0 86 77
0 86 77
0 86 77
0 86 76
0 83 74
0 83 74
0 0 0
0 0 0
0 0 0
0 0 0
0 0 0
0 0 0
0 0 0
0 0 0
0 0 0
0 0 0
0 0 0
0 0 0
0 0 0
0 0 0
0 0 0
0 0 0
0 0 0
0 0 0
0 0 0
0 127 113
0 127 113
0 127 113
0 127 113
0 127 113
0 127 113
0 127 113
0 112 100
0 95 85
0 89 80
0 87 78
0 86 77
0 86 77
0 86 77
0 86 77
0 86 77
0 86 77
0 86 77
0 86 77
0 86 77
0 86 77
0 86 77
0 86 77
0 86 77
0 86 77
0 86 77
0 86 77
0 86 77
0 86 77
0 86 77
0 86 77
0 86 77
0 86 77
0 86 77
0 86 77
0 86 77
0 86 77
0 86 77
0 86 76
0 83 74
0 83 74
0 0 0
0 0 0
0 0 0
0 0 0
0 0 0
0 0 0
0 0 0
0 0 0
0 0 0
0 0 0
0 0 0
0 0 0
0 0 0
0 0 0
0 0 0
0 0 0
0 0 0
0 0 0
0 0 0
0 127 113
0 127 113
0 127 113
0 127 113
0 127 113
0 127 113
0 127 113
0 112 100
0 95 85
0 89 80
0 87 78
0 86 77
0 86 77
0 86 77
0 86 77
0 86 77
0 86 77
0 86 77
0 86 77
0 86 77
0 86 77
0 86 77
0 86 77
0 86 77
0 86 77
0 86 77
0 86 77
0 86 77
0 86 77
0 86 77
0 86 77
0 86 77
0 86 77
0 86 77
0 86 77
0 86 77
0 86 77
0 86 77
0 86 76
0 83 74
0 83 74
0 0 0
0 0 0
0 0 0
0 0 0
0 0 0
0 0 0
0 0 0
0 0 0
0 0 0
0 0 0
0 0 0
0 0 0
0 0 0
0 0 0
0 0 0
0 0 0
0 0 0
0 0 0
0 0 0
0 127 113
0 127 113
0 127 113
0 127 113
0 127 113
0 127 113
0 127 113
0 112 100
0 95 85
0 89 80
0 87 78
0 86 77
0 86 77
0 86 77
0 86 77
0 86 77
0 86 77
0 86 77
0 86 77
0 86 77
0 86 77
0 86 77
0 86 77
0 86 77
0 86 77
0 86 77
0 86 77
0 86 77
0 86 77
0 86 77
0 86 77
0 86 77
0 86 77
0 86 77
0 86 77
0 86 77
0 86 77
0 86 77
0 86 76
0 83 74
0 83 74
0 0 0
0 0 0
0 0 0
0 0 0
0 0 0
0 0 0
0 0 0
0 0 0
0 0 0
0 0 0
0 0 0
0 0 0
0 0 0
0 0 0
0 0 0
0 0 0
0 0 0
0 0 0
0 0 0
0 127 113
0 127 113
0 127 113
0 127 113
0 127 113
0 127 113
0 127 113
0 112 100
0 95 85
0 89 80
0 87 78
0 86 77
0 86 77
0 86 77
0 86 77
0 86 77
0 86 77
0 86 77
0 86 77
0 86 77
0 86 77
0 86 77
0 86 77
0 86 77
0 86 77
0 86 77
0 86 77
0 86 77
0 86 77
0 86 77
0 86 77
0 86 77
0 86 77
0 86 77
0 86 77
0 86 77
0 86 77
0 86 77
0 86 76
0 83 74
0 83 74
0 0 0
0 0 0
0 0 0
0 0 0
0 0 0
0 0 0
0 0 0
0 0 0
0 0 0
0 0 0
0 0 0
0 0 0
0 0 0
0 0 0
0 0 0
0 0 0
0 0 0
0 0 0
0 0 0
0 127 113
0 127 113
0 127 113
0 127 113
0 127 113
0 127 113
0 127 113
0 112 100
0 95 85
0 89 80
0 87 78
0 86 77
0 86 77
0 86 77
0 86 77
0 86 77
0 86 77
0 86 77
0 86 77
0 86 77
0 86 77
0 86 77
0 86 77
0 86 77
0 86 77
0 86 77
0 86 77
0 86 77
0 86 77
0 86 77
0 86 77
0 86 77
0 86 77
0 86 77
0 86 77
0 86 77
0 86 77
0 86 77
0 86 76
0 83 74
0 83 74
0 0 0
0 0 0
0 0 0
0 0 0
0 0 0
0 0 0
0 0 0
0 0 0
0 0 0
0 0 0
0 0 0
0 0 0
0 0 0
0 0 0
0 0 0
0 0 0
0 0 0
0 0 0
0 0 0
0 127 113
0 127 113
0 127 113
0 127 113
0 127 113
0 127 113
0 127 113
0 112 100
0 95 85
0 89 80
0 87 78
0 86 77
0 86 77
0 86 77
0 86 77
0 86 77
0 86 77
0 86 77
0 86 77
0 86 77
0 86 77
0 86 77
0 86 77
0 86 77
0 86 77
0 86 77
0 86 77
0 86 77
0 86 77
0 86 77
0 86 77
0 86 77
0 86 77
0 86 77
0 86 77
0 86 77
0 86 77
0 86 77
0 86 76
0 83 74
0 83 74
0 0 0
0 0 0
0 0 0
0 0 0
0 0 0
0 0 0
0 0 0
0 0 0
0 0 0
0 0 0
0 0 0
0 0 0
0 0 0
0 0 0
0 0 0
0 0 0
0 0 0
0 0 0
0 0 0
0 127 113
0 127 113
0 127 113
0 127 113
0 127 113
0 127 113
0 127 113
0 112 100
0 95 85
0 89 80
0 87 78
0 86 77
0 86 77
0 86 77
0 86 77
0 86 77
0 86 77
0 86 77
0 86 77
0 86 77
0 86 77
0 86 77
0 86 77
0 86 77
0 86 77
0 86 77
0 86 77
0 86 77
0 86 77
0 86 77
0 86 77
0 86 77
0 86 77
0 86 77
0 86 77
0 86 77
0 86 77
0 86 77
0 86 76
0 83 74
0 83 74
0 0 0
0 0 0
0 0 0
0 0 0
0 0 0
0 0 0
0 0 0
0 0 0
0 0 0
0 0 0
0 0 0
0 0 0
0 0 0
0 0 0
0 0 0
0 0 0
0 0 0
0 0 0
0 0 0
0 127 113
0 127 113
0 127 113
0 127 113
0 127 113
0 127 113
0 127 113
0 112 100
0 95 85
0 89 79
0 87 78
0 86 77
0 86 77
0 86 77
0 86 77
0 86 77
0 86 77
0 86 77
0 86 77
0 86 77
0 86 77
0 86 77
0 86 77
0 86 77
0 86 77
0 86 77
0 86 77
0 86 77
0 86 77
0 86 77
0 86 77
0 86 77
0 86 77
0 86 77
0 86 77
0 86 77
0 86 77
0 86 77
0 86 76
0 83 74
0 83 74
0 0 0
0 0 0
0 0 0
0 0 0
0 0 0
0 0 0
0 0 0
0 0 0
0 0 0
0 0 0
0 0 0
0 0 0
0 0 0
0 0 0
0 0 0
0 0 0
0 0 0
0 0 0
0 0 0
0 127 113
0 127 113
0 127 113
0 127 113
0 127 113
0 127 113
0 127 113
0 112 100
0 95 85
0 89 79
0 87 78
0 86 77
0 86 77
0 86 77
0 86 77
0 86 77
0 86 77
0 86 77
0 86 77
0 86 77
0 86 77
0 86 77
0 86 77
0 86 77
0 86 77
0 86 77
0 86 77
0 86 77
0 86 77
0 86 77
0 86 77
0 86 77
0 86 77
0 86 77
0 86 77
0 86 77
0 86 77
0 86 77
0 85 76
0 83 74
0 83 74
0 0 0
0 0 0
0 0 0
0 0 0
0 0 0
0 0 0
0 0 0
0 0 0
0 0 0
0 0 0
0 0 0
0 0 0
0 0 0
0 0 0
0 0 0
0 0 0
0 0 0
0 0 0
0 0 0
0 127 113
0 127 113
0 127 113
0 127 113
0 127 113
0 127 113
0 127 113
0 112 100
0 95 85
0 89 79
0 87 78
0 86 77
0 86 77
0 86 77
0 86 77
0 86 77
0 86 77
0 86 77
0 86 77
0 86 77
0 86 77
0 86 77
0 86 77
0 86 77
0 86 77
0 86 77
0 86 77
0 86 77
0 86 77
0 86 77
0 86 77
0 86 77
0 86 77
0 86 77
0 86 77
0 86 77
0 86 77
0 86 77
0 85 76
0 83 74
0 83 74
0 0 0
0 0 0
0 0 0
0 0 0
0 0 0
0 0 0
0 0 0
0 0 0
0 0 0
0 0 0
0 0 0
0 0 0
0 0 0
0 0 0
0 0 0
0 0 0
0 0 0
0 0 0
0 0 0
0 127 113
0 127 113
0 127 113
0 127 113
0 127 113
0 127 113
0 126 113
0 112 100
0 95 85
0 89 79
0 87 77
0 86 77
0 86 77
0 86 76
0 86 76
0 86 76
0 86 76
0 86 76
0 86 76
0 86 76
0 86 77
0 86 77
0 86 77
0 86 77
0 86 77
0 86 77
0 86 77
0 86 77
0 86 77
0 86 77
0 86 77
0 86 77
0 86 77
0 86 77
0 86 77
0 86 77
0 86 77
0 86 77
0 85 76
0 83 74
0 83 74
0 0 0
0 0 0
0 0 0
0 0 0
0 0 0
0 0 0
0 0 0
0 0 0
0 0 0
0 0 0
0 0 0
0 0 0
0 0 0
0 0 0
0 0 0
0 0 0
0 0 0
0 0 0
0 0 0
0 127 113
0 126 113
0 126 113
0 126 113
0 126 112
0 126 112
0 125 112
0 111 99
0 94 84
0 88 78
0 86 77
0 85 76
0 85 76
0 85 76
0 85 76
0 85 76
0 85 76
0 85 76
0 85 76
0 85 76
0 85 76
0 85 76
0 85 76
0 85 76
0 85 76
0 85 76
0 85 76
0 85 76
0 85 76
0 85 76
0 85 76
0 85 76
0 85 76
0 85 76
0 85 76
0 85 76
0 85 76
0 85 76
0 85 76
0 83 74
0 83 74
0 0 0
0 0 0
0 0 0
0 0 0
0 0 0
0 0 0
0 0 0
0 0 0
0 0 0
0 0 0
0 0 0
0 0 0
0 0 0
0 0 0
0 0 0
0 0 0
0 0 0
0 0 0
0 0 0
0 126 112
0 125 112
0 125 112
0 125 111
0 124 111
0 124 110
0 122 109
0 108 96
0 91 81
0 85 76
0 83 74
0 83 74
0 83 74
0 83 74
0 83 74
0 83 74
0 83 74
0 83 74
0 83 74
0 83 74
0 83 74
0 83 74
0 83 74
0 83 74
0 83 74
0 83 74
0 83 74
0 83 74
0 83 74
0 83 74
0 83 74
0 83 74
0 83 74
0 84 75
0 84 75
0 84 75
0 84 75
0 84 75
0 83 74
0 83 74
0 83 74
0 0 0
0 0 0
0 0 0
0 0 0
0 0 0
0 0 0
0 0 0
0 0 0
0 0 0
0 0 0
0 0 0
0 0 0
0 0 0
0 0 0
0 0 0
0 0 0
0 0 0
0 0 0
0 0 0
0 122 108
0 121 108
0 119 107
0 118 106
0 117 105
0 116 103
0 114 101
0 98 87
0 83 74
0 83 74
0 83 74
0 83 74
0 83 74
0 83 74
0 83 74
0 83 74
0 83 74
0 83 74
0 83 74
0 83 74
0 83 74
0 83 74
0 83 74
0 83 74
0 83 74
0 83 74
0 83 74
0 83 74
0 83 74
0 83 74
0 83 74
0 83 74
0 83 74
0 83 74
0 83 74
0 83 74
0 83 74
0 83 74
0 83 74
0 83 74
0 83 74
0 0 0
0 0 0
0 0 0
0 0 0
0 0 0
0 0 0
0 0 0
0 0 0
0 0 0
0 0 0
0 0 0
0 0 0
0 0 0
0 0 0
0 0 0
0 0 0
0 0 0
0 0 0
0 0 0
0 100 90
0 98 87
0 95 85
0 92 82
0 90 80
0 87 78
0 83 74
0 83 74
0 83 74
0 83 74
0 83 74
0 83 74
0 83 74
0 83 74
0 83 74
0 83 74
0 83 74
0 83 74
0 83 74
0 83 74
0 83 74
0 83 74
0 83 74
0 83 74
0 83 74
0 83 74
0 83 74
0 83 74
0 83 74
0 83 74
0 83 74
0 83 74
0 83 74
0 83 74
0 83 74
0 83 74
0 83 74
0 83 74
0 83 74
0 83 74
0 0 0
0 0 0
0 0 0
0 0 0
0 0 0
0 0 0
0 0 0
0 0 0
0 0 0
0 0 0
0 0 0
0 0 0
0 0 0
0 0 0
0 0 0
0 0 0
0 0 0
0 0 0
0 0 0
0 0 0
0 0 0
0 0 0
0 0 0
0 0 0
0 0 0
0 83 74
0 83 74
0 83 74
0 83 74
0 83 74
0 83 74
0 83 74
0 83 74
0 83 74
0 83 74
0 83 74
0 83 74
0 83 74
0 83 74
0 83 74
0 83 74
0 83 74
0 83 74
0 83 74
0 83 74
0 83 74
0 83 74
0 83 74
0 83 74
0 83 74
0 83 74
0 83 74
0 83 74
0 0 0
0 0 0
0 0 0
0 0 0
0 0 0
0 0 0
0 0 0
0 0 0
0 0 0
0 0 0
0 0 0
0 0 0
0 0 0
0 0 0
0 0 0
0 0 0
0 0 0
0 0 0
0 0 0
0 0 0
0 0 0
0 0 0
0 0 0
0 0 0
0 0 0
0 0 0
0 0 0
0 0 0
0 0 0
0 0 0
0 0 0
0 0 0
0 0 0
0 0 0
0 0 0
0 0 0
0 0 0
0 0 0
0 0 0
0 0 0
0 165 147
0 164 147
0 163 145
0 161 144
0 159 142
0 157 140
0 154 138
0 151 135
0 148 133
0 145 129
0 141 126
0 0 0
0 0 0
0 0 0
0 0 0
0 0 0
0 0 0
0 0 0
0 0 0
0 0 0
0 0 0
0 0 0
0 0 0
0 0 0
0 0 0
0 0 0
0 0 0
0 0 0
0 0 0
0 0 0
0 0 0
0 0 0
0 0 0
0 0 0
0 0 0
0 0 0
0 0 0
0 0 0
0 0 0
0 0 0
0 0 0
0 0 0
0 0 0
0 0 0
0 0 0
0 0 0
0 0 0
0 0 0
0 0 0
0 0 0
0 0 0
0 0 0
0 0 0
0 0 0
0 0 0
0 0 0
0 0 0
0 0 0
0 167 149
0 166 148
0 165 147
0 163 146
0 161 144
0 159 142
0 157 140
0 155 138
0 153 136
0 150 134
0 147 132
0 145 129
0 141 126
0 138 123
0 133 119
0 0 0
0 0 0
0 0 0
0 0 0
0 0 0
0 0 0
0 0 0
0 0 0
0 0 0
0 0 0
0 0 0
0 0 0
0 0 0
0 0 0
0 0 0
0 0 0
0 0 0
0 0 0
0 0 0
0 0 0
0 0 0
0 0 0
0 0 0
0 0 0
0 0 0
0 0 0
0 0 0
0 0 0
0 0 0
0 0 0
0 0 0
0 0 0
0 0 0
0 0 0
0 0 0
0 0 0
0 0 0
0 0 0
0 0 0
0 0 0
0 0 0
0 0 0
0 0 0
0 166 149
0 166 149
0 166 148
0 164 147
0 163 145
0 161 144
0 159 142
0 157 140
0 155 138
0 153 137
0 151 134
0 148 132
0 146 130
0 143 128
0 140 125
0 137 122
0 133 119
0 129 115
0 123 110
0 0 0
0 0 0
0 0 0
0 0 0
0 0 0
0 0 0
0 0 0
0 0 0
0 0 0
0 0 0
0 0 0
0 0 0
0 0 0
0 0 0
0 0 0
0 0 0
0 0 0
0 0 0
0 0 0
0 0 0
0 0 0
0 0 0
0 0 0
0 0 0
0 0 0
0 0 0
0 0 0
0 0 0
0 0 0
0 0 0
0 0 0
0 0 0
0 0 0
0 0 0
0 0 0
0 0 0
0 0 0
0 0 0
0 0 0
0 0 0
0 166 148
0 166 148
0 165 147
0 163 146
0 162 145
0 160 143
0 159 142
0 157 140
0 155 138
0 153 136
0 151 134
0 148 132
0 146 130
0 143 128
0 141 126
0 138 123
0 135 120
0 132 117
0 128 114
0 124 110
0 118 105
0 0 0
0 0 0
0 0 0
0 0 0
0 0 0
0 0 0
0 0 0
0 0 0
0 0 0
0 0 0
0 0 0
0 0 0
0 0 0
0 0 0
0 0 0
0 0 0
0 0 0
0 0 0
0 0 0
0 0 0
0 0 0
0 0 0
0 0 0
0 0 0
0 0 0
0 0 0
0 0 0
0 0 0
0 0 0
0 0 0
0 0 0
0 0 0
0 0 0
0 0 0
0 0 0
0 0 0
0 0 0
0 0 0
0 164 147
0 164 147
0 163 146
0 162 145
0 161 144
0 159 142
0 158 141
0 156 139
0 154 138
0 152 136
0 150 134
0 148 132
0 146 130
0 143 128
0 141 126
0 138 124
0 136 121
0 133 118
0 130 116
0 126 113
0 122 109
0 118 105
0 112 100
0 0 0
0 0 0
0 0 0
0 0 0
0 0 0
0 0 0
0 0 0
0 0 0
0 0 0
0 0 0
0 0 0
0 0 0
0 0 0
0 0 0
0 0 0
0 0 0
0 0 0
0 0 0
0 0 0
0 0 0
0 0 0
0 0 0
0 0 0
0 0 0
0 0 0
0 0 0
0 0 0
0 0 0
0 0 0
0 0 0
0 0 0
0 0 0
0 0 0
0 0 0
0 0 0
0 0 0
0 162 145
0 163 145
0 162 145
0 161 144
0 160 142
0 158 141
0 157 140
0 155 138
0 153 137
0 151 135
0 149 133
0 147 132
0 145 130
0 143 128
0 141 126
0 138 123
0 136 121
0 133 119
0 130 116
0 127 114
0 124 111
0 121 108
0 117 104
0 112 100
0 105 94
0 0 0
0 0 0
0 0 0
0 0 0
0 0 0
0 0 0
0 0 0
0 0 0
0 0 0
0 0 0
0 0 0
0 0 0
0 0 0
0 0 0
0 0 0
0 0 0
0 0 0
0 0 0
0 0 0
0 0 0
0 0 0
0 0 0
0 0 0
0 0 0
0 0 0
0 0 0
0 0 0
0 0 0
0 0 0
0 0 0
0 0 0
0 0 0
0 0 0
0 0 0
0 160 142
0 161 143
0 160 143
0 159 142
0 158 141
0 157 140
0 155 139
0 154 137
0 152 136
0 150 134
0 149 133
0 147 131
0 145 129
0 142 127
0 140 125
0 138 123
0 136 121
0 133 119
0 131 117
0 128 114
0 125 111
0 122 109
0 118 106
0 115 102
0 110 98
0 105 94
0 98 87
0 0 0
0 0 0
0 0 0
0 0 0
0 0 0
0 0 0
0 0 0
0 0 0
0 0 0
0 0 0
0 0 0
0 0 0
0 0 0
0 0 0
0 0 0
0 0 0
0 0 0
0 0 0
0 0 0
0 0 0
0 0 0
0 0 0
0 0 0
0 0 0
0 0 0
0 0 0
0 0 0
0 0 0
0 0 0
0 0 0
0 0 0
0 0 0
0 0 0
0 158 141
0 158 141
0 157 141
0 156 140
0 155 139
0 154 137
0 152 136
0 151 135
0 149 133
0 147 132
0 146 130
0 144 128
0 142 126
0 140 125
0 137 123
0 135 121
0 133 119
0 130 116
0 128 114
0 125 112
0 122 109
0 119 106
0 116 103
0 112 100
0 108 97
0 104 92
0 98 87
0 0 0
0 0 0
0 0 0
0 0 0
0 0 0
0 0 0
0 0 0
0 0 0
0 0 0
0 0 0
0 0 0
0 0 0
0 0 0
0 0 0
0 0 0
0 0 0
0 0 0
0 0 0
0 0 0
0 0 0
0 0 0
0 0 0
0 0 0
0 0 0
0 0 0
0 0 0
0 0 0
0 0 0
0 0 0
0 0 0
0 0 0
0 0 0
0 155 138
0 156 139
0 155 139
0 155 138
0 153 137
0 152 136
0 151 135
0 149 133
0 148 132
0 146 130
0 144 129
0 143 127
0 141 126
0 139 124
0 137 122
0 135 120
0 132 118
0 130 116
0 128 114
0 125 112
0 122 109
0 119 107
0 116 104
0 113 101
0 110 98
0 106 95
0 102 91
0 96 86
0 89 79
0 0 0
0 0 0
0 0 0
0 0 0
0 0 0
0 0 0
0 0 0
0 0 0
0 0 0
0 0 0
0 0 0
0 0 0
0 0 0
0 0 0
0 0 0
0 0 0
0 0 0
0 0 0
0 0 0
0 0 0
0 0 0
0 0 0
0 0 0
0 0 0
0 0 0
0 0 0
0 0 0
0 0 0
0 0 0
0 0 0
0 0 0
0 153 136
0 153 136
0 152 136
0 152 135
0 150 134
0 149 133
0 148 132
0 146 131
0 145 129
0 143 128
0 141 126
0 140 125
0 138 123
0 136 121
0 134 119
0 132 117
0 129 115
0 127 113
0 125 111
0 122 109
0 119 107
0 117 104
0 114 101
0 111 99
0 107 96
0 103 92
0 99 89
0 94 84
0 88 79
0 0 0
0 0 0
0 0 0
0 0 0
0 0 0
0 0 0
0 0 0
0 0 0
0 0 0
0 0 0
0 0 0
0 0 0
0 0 0
0 0 0
0 0 0
0 0 0
0 0 0
0 0 0
0 0 0
0 0 0
0 0 0
0 0 0
0 0 0
0 0 0
0 0 0
0 0 0
0 0 0
0 0 0
0 0 0
0 0 0
0 148 132
0 150 134
0 150 134
0 149 133
0 148 132
0 147 131
0 146 130
0 145 129
0 143 128
0 142 126
0 140 125
0 138 123
0 136 122
0 135 120
0 133 118
0 131 117
0 129 115
0 126 113
0 124 111
0 122 109
0 119 106
0 116 104
0 114 101
0 111 99
0 108 96
0 104 93
0 101 90
0 97 86
0 92 82
0 86 77
0 83 74
0 0 0
0 0 0
0 0 0
0 0 0
0 0 0
0 0 0
0 0 0
0 0 0
0 0 0
0 0 0
0 0 0
0 0 0
0 0 0
0 0 0
0 0 0
0 0 0
0 0 0
0 0 0
0 0 0
0 0 0
0 0 0
0 0 0
0 0 0
0 0 0
0 0 0
0 0 0
0 0 0
0 0 0
0 0 0
0 146 130
0 147 131
0 147 131
0 146 130
0 145 130
0 144 129
0 143 127
0 141 126
0 140 125
0 138 124
0 137 122
0 135 121
0 133 119
0 131 117
0 130 116
0 128 114
0 125 112
0 123 110
0 121 108
0 119 106
0 116 104
0 113 101
0 111 99
0 108 96
0 105 93
0 101 90
0 98 87
0 94 84
0 89 80
0 84 75
0 83 74
0 0 0
0 0 0
0 0 0
0 0 0
0 0 0
0 0 0
0 0 0
0 0 0
0 0 0
0 0 0
0 0 0
0 0 0
0 0 0
0 0 0
0 0 0
0 0 0
0 0 0
0 0 0
0 0 0
0 0 0
0 0 0
0 0 0
0 0 0
0 0 0
0 0 0
0 0 0
0 0 0
0 0 0
0 0 0
0 143 128
0 144 128
0 143 128
0 143 127
0 142 127
0 141 126
0 140 125
0 138 123
0 137 122
0 135 121
0 134 119
0 132 118
0 130 116
0 128 114
0 126 113
0 124 111
0 122 109
0 120 107
0 118 105
0 115 103
0 113 101
0 110 98
0 108 96
0 105 93
0 102 91
0 98 88
0 95 85
0 91 81
0 86 77
0 83 74
0 83 74
0 0 0
0 0 0
0 0 0
0 0 0
0 0 0
0 0 0
0 0 0
0 0 0
0 0 0
0 0 0
0 0 0
0 0 0
0 0 0
0 0 0
0 0 0
0 0 0
0 0 0
0 0 0
0 0 0
0 0 0
0 0 0
0 0 0
0 0 0
0 0 0
0 0 0
0 0 0
0 0 0
0 0 0
0 135 121
0 140 125
0 140 125
0 140 125
0 139 124
0 139 124
0 137 123
0 136 122
0 135 120
0 133 119
0 132 118
0 130 116
0 129 115
0 127 113
0 125 112
0 123 110
0 121 108
0 119 106
0 117 104
0 115 102
0 112 100
0 110 98
0 107 96
0 104 93
0 102 91
0 98 88
0 95 85
0 92 82
0 88 78
0 83 74
0 83 74
0 83 74
0 83 74
0 0 0
0 0 0
0 0 0
0 0 0
0 0 0
0 0 0
0 0 0
0 0 0
0 0 0
0 0 0
0 0 0
0 0 0
0 0 0
0 0 0
0 0 0
0 0 0
0 0 0
0 0 0
0 0 0
0 0 0
0 0 0
0 0 0
0 0 0
0 0 0
0 0 0
0 0 0
0 0 0
0 133 119
0 136 122
0 137 122
0 137 122
0 136 121
0 135 121
0 134 120
0 133 119
0 132 117
0 130 116
0 129 115
0 127 113
0 125 112
0 124 110
0 122 109
0 120 107
0 118 105
0 116 103
0 114 101
0 111 99
0 109 97
0 106 95
0 104 93
0 101 90
0 98 88
0 95 85
0 92 82
0 88 79
0 85 75
0 83 74
0 83 74
0 83 74
0 83 74
0 0 0
0 0 0
0 0 0
0 0 0
0 0 0
0 0 0
0 0 0
0 0 0
0 0 0
0 0 0
0 0 0
0 0 0
0 0 0
0 0 0
0 0 0
0 0 0
0 0 0
0 0 0
0 0 0
0 0 0
0 0 0
0 0 0
0 0 0
0 0 0
0 0 0
0 0 0
0 0 0
0 130 116
0 133 118
0 133 119
0 133 119
0 132 118
0 132 117
0 131 117
0 129 115
0 128 114
0 127 113
0 125 112
0 124 110
0 122 109
0 120 107
0 118 106
0 116 104
0 114 102
0 112 100
0 110 98
0 108 96
0 106 94
0 103 92
0 101 90
0 98 87
0 95 85
0 92 82
0 89 79
0 85 76
0 83 74
0 83 74
0 83 74
0 83 74
0 83 74
0 0 0
0 0 0
0 0 0
0 0 0
0 0 0
0 0 0
0 0 0
0 0 0
0 0 0
0 0 0
0 0 0
0 0 0
0 0 0
0 0 0
0 0 0
0 0 0
0 0 0
0 0 0
0 0 0
0 0 0
0 0 0
0 0 0
0 0 0
0 0 0
0 0 0
0 0 0
0 0 0
0 126 112
0 129 115
0 129 116
0 129 115
0 129 115
0 128 114
0 127 113
0 126 112
0 125 111
0 123 110
0 122 109
0 120 107
0 119 106
0 117 104
0 115 103
0 113 101
0 111 99
0 109 97
0 107 95
0 105 93
0 102 91
0 100 89
0 97 87
0 94 84
0 92 82
0 88 79
0 85 76
0 83 74
0 83 74
0 83 74
0 83 74
0 83 74
0 83 74
0 0 0
0 0 0
0 0 0
0 0 0
0 0 0
0 0 0
0 0 0
0 0 0
0 0 0
0 0 0
0 0 0
0 0 0
0 0 0
0 0 0
0 0 0
0 0 0
0 0 0
0 0 0
0 0 0
0 0 0
0 0 0
0 0 0
0 0 0
0 0 0
0 0 0
0 0 0
0 0 0
0 121 108
0 125 111
0 126 112
0 125 112
0 125 112
0 124 111
0 123 110
0 122 109
0 121 108
0 120 107
0 118 105
0 117 104
0 115 103
0 113 101
0 111 99
0 110 98
0 108 96
0 106 94
0 103 92
0 101 90
0 99 88
0 96 86
0 94 84
0 91 81
0 88 79
0 85 76
0 83 74
0 83 74
0 83 74
0 83 74
0 83 74
0 83 74
0 83 74
0 0 0
0 0 0
0 0 0
0 0 0
0 0 0
0 0 0
0 0 0
0 0 0
0 0 0
0 0 0
0 0 0
0 0 0
0 0 0
0 0 0
0 0 0
0 0 0
0 0 0
0 0 0
0 0 0
0 0 0
0 0 0
0 0 0
0 0 0
0 0 0
0 0 0
0 0 0
0 0 0
0 115 103
0 121 108
0 121 108
0 122 108
0 121 108
0 120 108
0 120 107
0 119 106
0 117 105
0 116 103
0 115 102
0 113 101
0 111 99
0 110 98
0 108 96
0 106 95
0 104 93
0 102 91
0 100 89
0 98 87
0 95 85
0 93 83
0 90 80
0 87 78
0 84 75
0 83 74
0 83 74
0 83 74
0 83 74
0 83 74
0 83 74
0 83 74
0 83 74
0 0 0
0 0 0
0 0 0
0 0 0
0 0 0
0 0 0
0 0 0
0 0 0
0 0 0
0 0 0
0 0 0
0 0 0
0 0 0
0 0 0
0 0 0
0 0 0
0 0 0
0 0 0
0 0 0
0 0 0
0 0 0
0 0 0
0 0 0
0 0 0
0 0 0
0 0 0
0 0 0
0 0 0
0 116 103
0 117 105
0 117 105
0 117 105
0 117 104
0 116 103
0 115 102
0 114 101
0 112 100
0 111 99
0 109 98
0 108 96
0 106 95
0 104 93
0 102 91
0 100 90
0 98 88
0 96 86
0 94 84
0 92 82
0 89 79
0 86 77
0 84 75
0 83 74
0 83 74
0 83 74
0 83 74
0 83 74
0 83 74
0 83 74
0 83 74
0 0 0
0 0 0
0 0 0
0 0 0
0 0 0
0 0 0
0 0 0
0 0 0
0 0 0
0 0 0
0 0 0
0 0 0
0 0 0
0 0 0
0 0 0
0 0 0
0 0 0
0 0 0
0 0 0
0 0 0
0 0 0
0 0 0
0 0 0
0 0 0
0 0 0
0 0 0
0 0 0
0 0 0
0 0 0
0 111 99
0 113 101
0 113 101
0 113 101
0 112 100
0 112 100
0 111 99
0 110 98
0 108 97
0 107 95
0 106 94
0 104 93
0 102 91
0 100 90
0 99 88
0 97 86
0 95 84
0 92 82
0 90 80
0 88 78
0 85 76
0 83 74
0 83 74
0 83 74
0 83 74
0 83 74
0 83 74
0 83 74
0 83 74
0 83 74
0 83 74
0 0 0
0 0 0
0 0 0
0 0 0
0 0 0
0 0 0
0 0 0
0 0 0
0 0 0
0 0 0
0 0 0
0 0 0
0 0 0
0 0 0
0 0 0
0 0 0
0 0 0
0 0 0
0 0 0
0 0 0
0 0 0
0 0 0
0 0 0
0 0 0
0 0 0
0 0 0
0 0 0
0 0 0
0 0 0
0 105 93
0 108 96
0 109 97
0 109 97
0 108 97
0 108 96
0 107 95
0 106 94
0 104 93
0 103 92
0 102 91
0 100 89
0 98 88
0 97 86
0 95 85
0 93 83
0 91 81
0 89 79
0 86 77
0 84 75
0 83 74
0 83 74
0 83 74
0 83 74
0 83 74
0 83 74
0 83 74
0 83 74
0 83 74
0 83 74
0 83 74
0 0 0
0 0 0
0 0 0
0 0 0
0 0 0
0 0 0
0 0 0
0 0 0
0 0 0
0 0 0
0 0 0
0 0 0
0 0 0
0 0 0
0 0 0
0 0 0
0 0 0
0 0 0
0 0 0
0 0 0
0 0 0
0 0 0
0 0 0
0 0 0
0 0 0
0 0 0
0 0 0
0 0 0
0 0 0
0 0 0
0 102 91
0 104 93
0 104 93
0 104 93
0 103 92
0 102 91
0 101 91
0 100 90
0 99 88
0 98 87
0 96 86
0 94 84
0 93 83
0 91 81
0 89 79
0 87 77
0 85 75
0 83 74
0 83 74
0 83 74
0 83 74
0 83 74
0 83 74
0 83 74
0 83 74
0 83 74
0 83 74
0 83 74
0 83 74
0 0 0
0 0 0
0 0 0
0 0 0
0 0 0
0 0 0
0 0 0
0 0 0
0 0 0
0 0 0
0 0 0
0 0 0
0 0 0
0 0 0
0 0 0
0 0 0
0 0 0
0 0 0
0 0 0
0 0 0
0 0 0
0 0 0
0 0 0
0 0 0
0 0 0
0 0 0
0 0 0
0 0 0
0 0 0
0 0 0
0 0 0
0 96 86
0 98 88
0 99 88
0 99 88
0 99 88
0 98 88
0 97 87
0 96 86
0 95 85
0 93 83
0 92 82
0 90 81
0 89 79
0 87 77
0 85 76
0 83 74
0 83 74
0 83 74
0 83 74
0 83 74
0 83 74
0 83 74
0 83 74
0 83 74
0 83 74
0 83 74
0 83 74
0 83 74
0 83 74
0 0 0
0 0 0
0 0 0
0 0 0
0 0 0
0 0 0
0 0 0
0 0 0
0 0 0
0 0 0
0 0 0
0 0 0
0 0 0
0 0 0
0 0 0
0 0 0
0 0 0
0 0 0
0 0 0
0 0 0
0 0 0
0 0 0
0 0 0
0 0 0
0 0 0
0 0 0
0 0 0
0 0 0
0 0 0
0 0 0
0 0 0
0 0 0
0 92 82
0 94 84
0 94 84
0 94 84
0 93 83
0 93 83
0 92 82
0 90 81
0 89 79
0 88 78
0 86 77
0 84 75
0 83 74
0 83 74
0 83 74
0 83 74
0 83 74
0 83 74
0 83 74
0 83 74
0 83 74
0 83 74
0 83 74
0 83 74
0 83 74
0 83 74
0 83 74
0 0 0
0 0 0
0 0 0
0 0 0
0 0 0
0 0 0
0 0 0
0 0 0
0 0 0
0 0 0
0 0 0
0 0 0
0 0 0
0 0 0
0 0 0
0 0 0
0 0 0
0 0 0
0 0 0
0 0 0
0 0 0
0 0 0
0 0 0
0 0 0
0 0 0
0 0 0
0 0 0
0 0 0
0 0 0
0 0 0
0 0 0
0 0 0
0 0 0
0 84 75
0 88 78
0 89 79
0 89 79
0 88 79
0 88 78
0 87 78
0 86 77
0 84 75
0 83 74
0 83 74
0 83 74
0 83 74
0 83 74
0 83 74
0 83 74
0 83 74
0 83 74
0 83 74
0 83 74
0 83 74
0 83 74
0 83 74
0 83 74
0 83 74
0 83 74
0 83 74
0 0 0
0 0 0
0 0 0
0 0 0
0 0 0
0 0 0
0 0 0
0 0 0
0 0 0
0 0 0
0 0 0
0 0 0
0 0 0
0 0 0
0 0 0
0 0 0
0 0 0
0 0 0
0 0 0
0 0 0
0 0 0
0 0 0
0 0 0
0 0 0
0 0 0
0 0 0
0 0 0
0 0 0
0 0 0
0 0 0
0 0 0
0 0 0
0 0 0
0 0 0
0 83 74
0 83 74
0 83 74
0 83 74
0 83 74
0 83 74
0 83 74
0 83 74
0 83 74
0 83 74
0 83 74
0 83 74
0 83 74
0 83 74
0 83 74
0 83 74
0 83 74
0 83 74
0 83 74
0 83 74
0 83 74
0 83 74
0 83 74
0 83 74
0 83 74
0 0 0
0 0 0
0 0 0
0 0 0
0 0 0
0 0 0
0 0 0
0 0 0
0 0 0
0 0 0
0 0 0
0 0 0
0 0 0
0 0 0
0 0 0
0 0 0
0 0 0
0 0 0
0 0 0
0 0 0
0 0 0
0 0 0
0 0 0
0 0 0
0 0 0
0 0 0
0 0 0
0 0 0
0 0 0
0 0 0
0 0 0
0 0 0
0 0 0
0 0 0
0 0 0
0 0 0
0 83 74
0 83 74
0 83 74
0 83 74
0 83 74
0 83 74
0 83 74
0 83 74
0 83 74
0 83 74
0 83 74
0 83 74
0 83 74
0 83 74
0 83 74
0 83 74
0 83 74
0 83 74
0 83 74
0 83 74
0 83 74
0 83 74
0 83 74
0 0 0
0 0 0
0 0 0
0 0 0
0 0 0
0 0 0
0 0 0
0 0 0
0 0 0
0 0 0
0 0 0
0 0 0
0 0 0
0 0 0
0 0 0
0 0 0
0 0 0
0 0 0
0 0 0
0 0 0
0 0 0
0 0 0
0 0 0
0 0 0
0 0 0
0 0 0
0 0 0
0 0 0
0 0 0
0 0 0
0 0 0
0 0 0
0 0 0
0 0 0
0 0 0
0 0 0
0 0 0
0 0 0
0 83 74
0 83 74
0 83 74
0 83 74
0 83 74
0 83 74
0 83 74
0 83 74
0 83 74
0 83 74
0 83 74
0 83 74
0 83 74
0 83 74
0 83 74
0 83 74
0 83 74
0 83 74
0 83 74
0 83 74
0 83 74
0 0 0
0 0 0
0 0 0
0 0 0
0 0 0
0 0 0
0 0 0
0 0 0
0 0 0
0 0 0
0 0 0
0 0 0
0 0 0
0 0 0
0 0 0
0 0 0
0 0 0
0 0 0
0 0 0
